<?xml version="1.0" encoding="utf-8"?>
<!-- Generator: Adobe Illustrator 18.0.0, SVG Export Plug-In . SVG Version: 6.00 Build 0)  -->
<!DOCTYPE svg PUBLIC "-//W3C//DTD SVG 1.1//EN" "http://www.w3.org/Graphics/SVG/1.1/DTD/svg11.dtd">
<svg version="1.1" xmlns="http://www.w3.org/2000/svg" xmlns:xlink="http://www.w3.org/1999/xlink" x="0px" y="0px"
	 viewBox="0 0 50 50" enable-background="new 0 0 50 50" xml:space="preserve">
<g id="Layer_1" display="none">
	<g display="inline">
		<path fill="#B99867" d="M0,45.1c0-13.3,0-26.7,0-40C0,5,0.1,4.9,0.1,4.8c0.5-2.4,2-4,4.4-4.6C4.7,0.1,4.9,0.1,5.1,0
			c13.3,0,26.7,0,40,0c0.1,0,0.2,0.1,0.3,0.1c2.5,0.5,4,2,4.7,4.4c0.1,0.2,0.1,0.4,0.2,0.6c0,13.3,0,26.7,0,40
			c0,0.1-0.1,0.2-0.1,0.3c-0.4,2.3-2.2,4.2-4.5,4.6c-0.2,0-0.3,0.1-0.5,0.1c-13.3,0-26.7,0-40,0c-0.1,0-0.2-0.1-0.3-0.1
			c-2.4-0.4-4.1-2.1-4.7-4.4C0.1,45.5,0,45.3,0,45.1z M5.8,21.3c0,0.2,0,0.3,0,0.5c0,6.8,0,13.7,0,20.5c0,1.4,0.8,2.2,2.2,2.2
			c11.4,0,22.9,0,34.3,0c1.4,0,2.2-0.8,2.2-2.2c0-6.8,0-13.6,0-20.4c0-0.2,0-0.3,0-0.6c-1.5,0-2.9,0-4.3,0c1.1,4.9,0.3,9.3-2.8,13.3
			c-3,3.9-7.1,5.9-12.1,6c-4.1,0-7.7-1.4-10.7-4.2c-4.3-4.1-5.6-9.2-4.4-15C8.7,21.3,7.2,21.3,5.8,21.3z M25.1,34.7
			c5.3,0,9.7-4.3,9.7-9.6c0-5.3-4.3-9.6-9.6-9.7c-5.3,0-9.7,4.3-9.7,9.6C15.4,30.4,19.7,34.7,25.1,34.7z M44.4,10.6
			c0-0.9,0-1.9,0-2.8c0-1.2-0.8-2.1-2-2.1c-1.9,0-3.7,0-5.6,0c-1.2,0-2,0.8-2,2c0,1.9,0,3.8,0,5.7c0,1.2,0.8,2,2,2
			c1.9,0,3.8,0,5.7,0c1.2,0,2-0.8,2-2C44.4,12.5,44.4,11.6,44.4,10.6z"/>
	</g>
</g>
<g id="Layer_2">
	<g>
		<path fill="#B99867" d="M50,44.3c-16.7,0-33.3,0-50,0C0,31.8,0,19.2,0,6.7c16.7,0,33.3,0,50,0C50,19.2,50,31.7,50,44.3z M5.9,10.1
			c0.2,0.2,0.3,0.3,0.4,0.5c5.6,5.7,11.3,11.4,16.9,17.1c1,1,2.7,1.1,3.8,0c5.7-5.8,11.4-11.5,17-17.2c0.1-0.1,0.2-0.2,0.4-0.4
			C31.6,10.1,18.8,10.1,5.9,10.1z M31.5,27.9c-0.2,0.3-0.4,0.5-0.6,0.7c-0.7,0.7-1.4,1.5-2.3,2.2c-2.2,1.8-5.6,1.5-7.6-0.5
			c-0.8-0.8-1.6-1.6-2.5-2.4c-4.2,4.3-8.4,8.6-12.7,13c12.8,0,25.5,0,38.3,0C39.9,36.5,35.8,32.3,31.5,27.9z M16.2,25.4
			c-4.2-4.3-8.4-8.5-12.7-12.9c0,8.7,0,17.2,0,25.8C7.7,34,11.9,29.7,16.2,25.4z M46.5,38.4c0-8.5,0-17,0-25.2
			c-4.1,4.1-8.4,8.2-12.6,12.3C38.2,29.8,42.3,34.1,46.5,38.4z"/>
	</g>
</g>
</svg>
