<?xml version="1.0" encoding="utf-8"?>
<!-- Generator: Adobe Illustrator 18.0.0, SVG Export Plug-In . SVG Version: 6.00 Build 0)  -->
<!DOCTYPE svg PUBLIC "-//W3C//DTD SVG 1.1//EN" "http://www.w3.org/Graphics/SVG/1.1/DTD/svg11.dtd">
<svg version="1.1" id="Layer_1" xmlns="http://www.w3.org/2000/svg" xmlns:xlink="http://www.w3.org/1999/xlink" x="0px" y="0px"
	 viewBox="0 0 50 50" enable-background="new 0 0 50 50" xml:space="preserve">
<g>
	<path fill="#B99867" d="M0,45.1c0-13.3,0-26.7,0-40C0,5,0.1,4.9,0.1,4.8c0.5-2.4,2-4,4.4-4.6C4.7,0.1,4.9,0.1,5.1,0
		c13.3,0,26.7,0,40,0c0.1,0,0.2,0.1,0.3,0.1c2.5,0.5,4,2,4.7,4.4c0.1,0.2,0.1,0.4,0.2,0.6c0,13.3,0,26.7,0,40c0,0.1-0.1,0.2-0.1,0.3
		c-0.4,2.3-2.2,4.2-4.5,4.6c-0.2,0-0.3,0.1-0.5,0.1c-13.3,0-26.7,0-40,0c-0.1,0-0.2-0.1-0.3-0.1c-2.4-0.4-4.1-2.1-4.7-4.4
		C0.1,45.5,0,45.3,0,45.1z M5.8,21.3c0,0.2,0,0.3,0,0.5c0,6.8,0,13.7,0,20.5c0,1.4,0.8,2.2,2.2,2.2c11.4,0,22.9,0,34.3,0
		c1.4,0,2.2-0.8,2.2-2.2c0-6.8,0-13.6,0-20.4c0-0.2,0-0.3,0-0.6c-1.5,0-2.9,0-4.3,0c1.1,4.9,0.3,9.3-2.8,13.3c-3,3.9-7.1,5.9-12.1,6
		c-4.1,0-7.7-1.4-10.7-4.2c-4.3-4.1-5.6-9.2-4.4-15C8.7,21.3,7.2,21.3,5.8,21.3z M25.1,34.7c5.3,0,9.7-4.3,9.7-9.6
		c0-5.3-4.3-9.6-9.6-9.7c-5.3,0-9.7,4.3-9.7,9.6C15.4,30.4,19.7,34.7,25.1,34.7z M44.4,10.6c0-0.9,0-1.9,0-2.8c0-1.2-0.8-2.1-2-2.1
		c-1.9,0-3.7,0-5.6,0c-1.2,0-2,0.8-2,2c0,1.9,0,3.8,0,5.7c0,1.2,0.8,2,2,2c1.9,0,3.8,0,5.7,0c1.2,0,2-0.8,2-2
		C44.4,12.5,44.4,11.6,44.4,10.6z"/>
</g>
</svg>
