<?xml version="1.0" encoding="utf-8"?>
<!-- Generator: Adobe Illustrator 16.0.0, SVG Export Plug-In . SVG Version: 6.00 Build 0)  -->
<!DOCTYPE svg PUBLIC "-//W3C//DTD SVG 1.1//EN" "http://www.w3.org/Graphics/SVG/1.1/DTD/svg11.dtd">
<svg version="1.1" id="Layer_1" xmlns="http://www.w3.org/2000/svg" xmlns:xlink="http://www.w3.org/1999/xlink" x="0px" y="0px"
	 width="1102.223px" height="148.889px" viewBox="0 0 1102.223 148.889" enable-background="new 0 0 1102.223 148.889"
	 xml:space="preserve">
<g>
	<path d="M15.813,50.826c7.02-1.08,13.904-2.835,19.709-5.265V91.46c0,8.773-0.54,14.58-3.104,21.734
		c-4.725,13.498-13.229,23.758-16.335,26.459c-1.35,0.943-2.43,1.484-3.51,1.484c-1.754,0-4.859-2.699-4.859-5.939
		c0-1.756,0.945-2.701,2.835-3.105c4.455-1.08,7.965-2.699,9.854-5.129c1.62-2.025,2.564-5.131,3.375-9.721
		c0.81-5.805,1.08-13.77,1.08-26.053V64.866c0-9.18-0.676-9.72-9.045-10.935V50.826z M22.697,27.202c0-4.05,3.104-7.02,6.885-7.02
		c3.645,0,6.614,2.97,6.614,7.02c0,3.645-2.97,6.885-6.749,6.885C25.802,34.087,22.697,30.847,22.697,27.202z"/>
	<path d="M113.279,95.104c-8.505,10.529-17.819,12.959-22.005,12.959c-16.604,0-26.323-13.498-26.323-28.754
		c0-9.179,3.375-17.549,8.909-23.624c5.535-6.075,12.824-9.854,19.709-9.854h0.136c11.204,0,20.249,10.125,20.249,20.519
		c0,2.7-0.54,3.78-3.105,4.319c-2.159,0.405-19.169,1.755-35.368,2.296c0.135,18.359,10.8,25.918,20.249,25.918
		c5.535,0,10.529-2.16,15.524-6.75L113.279,95.104z M76.155,67.431c7.56,0,15.119-0.136,22.949-0.405c2.43,0,3.24-0.675,3.24-2.7
		c0.135-7.02-4.455-13.5-12.015-13.5C84.255,50.826,78.181,56.496,76.155,67.431z"/>
	<path d="M155.533,60.276c4.05-6.885,9.854-14.444,16.334-14.444c4.59,0,7.83,3.645,7.83,6.75c0,2.7-1.755,5.4-4.32,6.615
		c-1.619,0.675-2.699,0.54-3.51-0.27c-2.024-1.89-3.645-2.7-5.805-2.7c-3.51,0-7.829,3.915-10.8,11.474v24.705
		c0,8.908,0.676,9.719,11.07,10.529v3.51h-31.049v-3.51c8.369-0.811,9.314-1.621,9.314-10.529V64.46c0-8.91-0.54-9.45-8.37-10.395
		v-3.105c6.615-1.08,12.555-2.7,19.034-5.399v14.714H155.533z"/>
	<path d="M241.391,108.063c-2.025,0-4.86-1.215-6.345-2.699c-1.755-1.756-2.565-3.645-3.24-5.939
		c-5.399,3.645-11.88,8.639-15.93,8.639c-9.584,0-16.199-7.965-16.199-16.469c0-6.615,3.51-10.799,10.935-13.365
		c8.1-2.699,17.954-6.345,20.924-8.774V67.16c0-9.854-4.59-15.254-11.474-15.254c-2.565,0-4.59,0.945-6.075,2.565
		c-1.62,1.89-2.835,4.859-3.915,8.909c-0.675,2.16-2.024,3.105-3.915,3.105c-2.43,0-5.805-2.565-5.805-5.805
		c0-1.89,1.62-3.51,4.186-5.4c3.645-2.7,12.554-7.83,20.249-9.449c4.05,0,8.1,1.215,11.069,3.645
		c4.725,4.05,6.074,9.45,6.074,16.604v24.975c0,6.074,2.431,8.1,4.726,8.1c1.62,0,3.51-0.676,4.859-1.486l1.35,3.51L241.391,108.063
		z M231.535,74.046c-2.834,1.484-9.314,4.318-12.149,5.67c-5.265,2.43-8.234,4.994-8.234,9.988c0,6.885,5.399,10.26,9.585,10.26
		c3.51,0,8.234-2.295,10.799-4.859V74.046z"/>
	<path d="M269.876,106.444v-3.51c8.504-0.811,9.719-1.621,9.719-10.529V28.552c0-9.18-0.81-9.45-9.314-10.26v-3.24
		c7.02-0.81,15.39-3.105,19.979-4.725v82.078c0,8.908,1.08,9.719,9.72,10.529v3.51H269.876z"/>
	<path d="M385.296,102.935c-2.97,0.539-13.095,2.295-20.924,5.129V99.29l-8.234,4.859c-5.4,3.104-9.045,3.914-10.53,3.914
		c-10.799,0-24.974-9.854-24.974-28.754c0-18.764,16.334-33.478,34.693-33.478c1.89,0,5.939,0.405,9.045,1.62V28.147
		c0-8.774-0.675-9.18-10.395-9.854v-3.375c7.02-0.81,16.064-2.97,21.059-4.59v80.591c0,7.02,0.945,7.695,5.94,8.236l4.319,0.404
		V102.935z M364.372,57.846c-3.24-4.725-8.91-6.885-13.904-6.885c-6.345,0-17.685,5.13-17.685,24.704
		c0,16.064,9.854,23.895,18.629,23.895c4.726,0,9.72-2.16,12.96-4.59V57.846z"/>
	<path d="M449.018,50.826c7.02-1.08,13.904-2.835,19.709-5.265V91.46c0,8.773-0.54,14.58-3.104,21.734
		c-4.725,13.498-13.229,23.758-16.335,26.459c-1.35,0.943-2.43,1.484-3.51,1.484c-1.755,0-4.859-2.699-4.859-5.939
		c0-1.756,0.945-2.701,2.835-3.105c4.455-1.08,7.965-2.699,9.854-5.129c1.62-2.025,2.564-5.131,3.375-9.721
		c0.81-5.805,1.08-13.77,1.08-26.053V64.866c0-9.18-0.676-9.72-9.045-10.935V50.826z M455.902,27.202c0-4.05,3.104-7.02,6.885-7.02
		c3.645,0,6.614,2.97,6.614,7.02c0,3.645-2.97,6.885-6.749,6.885C459.007,34.087,455.902,30.847,455.902,27.202z"/>
	<path d="M499.238,100.233c0-4.318,3.239-7.693,7.56-7.693c4.319,0,7.56,3.375,7.56,7.693c0,4.727-3.24,7.83-7.695,7.83
		C502.478,108.063,499.238,104.96,499.238,100.233z"/>
	<path d="M584.421,50.826c7.02-1.08,13.904-2.835,19.709-5.265V91.46c0,8.773-0.54,14.58-3.104,21.734
		c-4.725,13.498-13.229,23.758-16.335,26.459c-1.35,0.943-2.43,1.484-3.51,1.484c-1.755,0-4.859-2.699-4.859-5.939
		c0-1.756,0.945-2.701,2.835-3.105c4.455-1.08,7.965-2.699,9.854-5.129c1.62-2.025,2.564-5.131,3.375-9.721
		c0.81-5.805,1.08-13.77,1.08-26.053V64.866c0-9.18-0.675-9.72-9.045-10.935V50.826z M591.306,27.202c0-4.05,3.104-7.02,6.885-7.02
		c3.645,0,6.614,2.97,6.614,7.02c0,3.645-2.97,6.885-6.749,6.885C594.41,34.087,591.306,30.847,591.306,27.202z"/>
	<path d="M692.417,75.935c0,21.734-15.93,32.129-29.294,32.129c-18.494,0-29.563-14.85-29.563-29.834
		c0-22.273,17.279-32.398,29.698-32.398C679.997,45.832,692.417,59.331,692.417,75.935z M646.113,73.91
		c0,17.009,7.29,29.698,18.495,29.698c8.369,0,15.254-6.209,15.254-24.703c0-15.66-6.345-28.619-18.359-28.619
		C653.403,50.286,646.113,58.656,646.113,73.91z"/>
	<path d="M750.738,106.444v-3.51c7.829-0.811,8.909-1.621,8.909-10.395V70.131c0-11.07-4.185-16.605-13.229-16.605
		c-5.13,0-10.26,2.565-14.039,6.885V92.54c0,8.639,0.675,9.584,8.774,10.395v3.51h-28.754l0.135-3.51
		c8.101-0.676,9.18-1.484,9.18-10.395V28.147c0-8.504-0.27-9.044-9.18-9.854v-3.24c6.48-0.945,14.58-3.105,19.845-4.725v45.358
		c4.859-4.86,12.015-9.854,19.304-9.854c10.935,0,18.63,6.884,18.63,23.084V92.54c0,8.91,1.08,9.719,8.909,10.395v3.51H750.738z"/>
	<path d="M838.083,106.444v-3.51c7.965-0.811,8.909-1.891,8.909-11.205V69.186c0-9.315-3.239-15.39-12.284-15.39
		c-5.399,0-10.665,3.375-14.715,6.885v31.725c0,9.18,0.811,9.719,8.775,10.529v3.51h-29.294v-3.51
		c9.18-0.945,9.854-1.621,9.854-10.529v-27.81c0-8.64-0.81-9.18-8.1-10.53v-3.105c6.479-1.215,12.824-2.834,18.764-5.399v10.665
		c2.7-2.025,5.67-4.05,9.045-6.345c3.78-2.43,7.29-4.05,11.205-4.05c10.799,0,17.414,7.56,17.414,20.519v26.055
		c0,9.18,0.81,9.719,8.64,10.529v3.51H838.083z"/>
	<path d="M921.513,63.516c-2.7-8.1-7.29-13.364-13.904-13.364c-5.265,0-8.774,3.915-8.774,9.314c0,5.94,5.399,9.044,11.339,11.609
		c10.26,4.186,17.145,9.045,17.145,18.359c0,12.285-11.475,18.629-22.274,18.629c-6.885,0-13.094-2.564-15.389-4.59
		c-0.945-1.889-2.295-11.068-2.295-15.93l3.645-0.674c2.295,8.91,8.369,16.738,16.47,16.738c4.994,0,9.584-3.645,9.584-9.449
		c0-5.939-3.915-9.18-10.664-12.283c-8.1-3.646-16.875-8.236-16.875-18.496c0-9.449,8.1-17.549,20.52-17.549
		c5.535,0,9.18,1.215,11.88,2.43c1.215,2.97,2.699,11.069,2.97,14.31L921.513,63.516z"/>
	<path d="M1009.8,75.935c0,21.734-15.93,32.129-29.294,32.129c-18.494,0-29.563-14.85-29.563-29.834
		c0-22.273,17.279-32.398,29.698-32.398C997.38,45.832,1009.8,59.331,1009.8,75.935z M963.496,73.91
		c0,17.009,7.29,29.698,18.495,29.698c8.369,0,15.254-6.209,15.254-24.703c0-15.66-6.345-28.619-18.359-28.619
		C970.786,50.286,963.496,58.656,963.496,73.91z"/>
	<path d="M1069.201,106.444v-3.51c7.965-0.811,8.909-1.891,8.909-11.205V69.186c0-9.315-3.239-15.39-12.284-15.39
		c-5.399,0-10.665,3.375-14.715,6.885v31.725c0,9.18,0.811,9.719,8.775,10.529v3.51h-29.294v-3.51
		c9.18-0.945,9.854-1.621,9.854-10.529v-27.81c0-8.64-0.811-9.18-8.1-10.53v-3.105c6.479-1.215,12.824-2.834,18.764-5.399v10.665
		c2.7-2.025,5.67-4.05,9.045-6.345c3.78-2.43,7.29-4.05,11.205-4.05c10.799,0,17.414,7.56,17.414,20.519v26.055
		c0,9.18,0.81,9.719,8.64,10.529v3.51H1069.201z"/>
</g>
</svg>
