<?xml version="1.0" encoding="utf-8"?>
<!-- Generator: Adobe Illustrator 21.0.0, SVG Export Plug-In . SVG Version: 6.00 Build 0)  -->
<svg version="1.1" xmlns="http://www.w3.org/2000/svg" xmlns:xlink="http://www.w3.org/1999/xlink" x="0px" y="0px"
	 viewBox="0 0 949 249" style="enable-background:new 0 0 949 249;" xml:space="preserve">
<style type="text/css">
	.st0{display:none;}
	.st1{display:inline;}
	.st2{fill:#0D2849;}
	.st3{fill:#FFFFFF;}
	.st4{fill:#A8DCDE;}
	.st5{display:inline;fill:#E4E525;}
	.st6{fill:none;}
	.st7{display:inline;fill:#F7D030;}
	.st8{display:none;fill:#4861AD;}
	.st9{fill:#4861AD;}
	.st10{fill:#F7D030;}
	.st11{fill:#4861AD;stroke:#4861AD;stroke-miterlimit:10;}
</style>
<g id="Layer_4">
</g>
<g id="Layer_5">
	<g>
		<path class="st8" d="M705.4,114.6c0,2.3-0.1,12.3,0,18.5c0,1.2-0.2,3.3,0,4.5h-9.2c0,0-0.5-15.4-0.5-20.3
			c0-4.9-2.9-14.1-13.2-14.1c-10.3,0-15.3,9.4-15.3,14.2c0,5.2,0,20.2,0,20.2h-9.5L656.9,38c-0.1-3.2,1-9.4,5.6-9.4
			c4.6,0,5.7,5.5,5.7,8.9c0,0-0.7,57.9-0.7,58.5c0.3-0.2,0.7-0.5,1-0.7c6.9-5.5,11.6-5.2,14.7-5.2
			C692.8,90.5,705.5,94.4,705.4,114.6z"/>
		<path class="st8" d="M177.8,121.9c4.2-0.4,8.5-0.3,12.5-1.4c2.3-0.7,5.1-3.1,5.7-5.3c1.8-6.4,2.6-13,3.6-19.5
			c0.2-1.5-1.2-3.1-1.2-4.6c0-0.8,1.5-1.9,2.5-2.2c1.8-0.5,3.7-0.8,5.6-0.7c1.1,0,3.1,0.9,3.1,1.5c0.2,6.6,0.2,13.3,0,19.9
			c-0.1,3.5-1,7-1.3,10.5c-0.8,7.1-8.5,15-15.6,15.9c-3,0.4-5.9,1.4-8.9,1.6c-6.6,0.6-13.1-0.1-19-3.6c-7-4.2-12.6-9.6-13.9-18
			c-1-6.4-1-12.8-1.5-19.3c-0.1-1.6-0.3-3.3-0.3-4.9c0-0.6,0.3-1.4,0.7-1.8c0.3-0.3,1.1,0.1,1.6,0.1c1.8,0,3.6-0.4,5.4-0.1
			c1.1,0.2,2.7,1.3,2.8,2.1c0.7,4.8,0.9,9.6,1.6,14.4C162.5,114.8,169.7,121.1,177.8,121.9z"/>
		<path class="st8" d="M753.2,104.4c-6.9-1.2-12.8,2.4-15.9,9.5c-1.9,4.4-2.4,9.5-2.9,14.3c-0.3,3.2,0.7,6.4,0.6,9.6
			c0,0.6-2.6,1.1-4,1.5c-0.2,0.1-0.5-0.4-0.7-0.3c-6.4,1.3-5.4-3.7-5.9-7.1c-1.4-9.9-0.2-19.7,4.5-28.5c3.1-5.9,8.2-9.7,15.3-10.6
			c7.1-0.8,14.1-1.7,20.9,1.5c4.3,2,7.6,5,9.7,9.3c4.7,9.6,6.1,19.8,5.8,30.4c0,0.4-0.1,0.9,0,1.3c0.5,4.5-2,6.2-6.3,4.4
			c-1.3-0.5-2.8-0.5-4-1.2c-0.5-0.3-0.7-1.5-0.7-2.2c-0.2-6.4,0.3-12.9-0.5-19.2C768,108.8,762.3,104.4,753.2,104.4z"/>
		<g id="Cup_1_">
			<path class="st9" d="M22.1,120.6c0-12.1,11.7-89.3,74.7-89.3c53.4,0,58.1,38.2,58.1,42.6c0,1.9-1,5.9-2.4,5.9l-1.2,1.7H143
				l-1-1.7c-1.1,0-2.5-2.9-2.6-5.6c0-0.9-0.1-0.8-0.2-2.4c-1.5-12-10.9-23-22.8-25.5c-6-1.2-12.4-2.4-18.4-1.7
				c-7.5,1-14.2,5.1-20,10.3c-3.9,3.5-7.6,7.3-11.1,11.2c-5.1,5.9-7.2,13.1-8.1,20.7c-0.3,2.8-1.3,5.5-1.4,8.3
				c-0.2,8.3,0,16.5,0,24.8c0,6.5-0.4,13-0.2,19.5c0.3,8,0.8,16.1,1.6,24.1c0.4,4.7,1.2,9.4,2.4,13.9c1.3,5.1,4.9,8.2,9.6,10.8
				c5,2.8,15.5,4,15.5,4l36.7,0.1c0,0,8.8-0.3,8.8-10.8c0.5-1.6,0.3-2.6,2.5-2.8l16.9,0.2c3,0,3,3,3,3s0.7,35.7-57.7,35.7
				C86.6,217.6,22.1,218.4,22.1,120.6z"/>
			<path class="st9" d="M115,89.1h13.6c0,0-2.4,10.5-2.4,18.7s1,15.5,22.8,15.5c21.8,0,21.3-9.2,21.3-16.8s-4.1-17.4-4.1-17.4h14.2
				c0,0,0.5,19.1,0.1,26.6c0.1,9-11.7,21.9-31.6,21.9S115,124.3,115,114.9C115,112.3,115,89.1,115,89.1z"/>
			<path class="st9" d="M184.8,115.3c3.2,0.5,6.4,2,9.6,2c4,0,15.5,0.6,15.5-10.1s-11.8-10-16.2-9.6c-4.7,0.4-9.3,2.1-9.3,2.1V89.1
				c0,0,18.4,0.2,24.1,1.2c11.6,2.1,13.3,8.5,13.3,18s-4.8,13.3-8.7,17.7c-2.1,2.4-8.8,7.3-11.5,9c-2.5,1.9-3.3,2.6-3.3,2.6
				l0.2,37.9c0,0,0,5.3-6.4,5.3c-6.3,0-6.4-5.2-6.4-5.2L184.8,115.3z"/>
		</g>
		<g id="of_1_">
			<path class="st9" d="M275.1,104.5c3.3-1,4.5,0.1,6.6-3.6c3.5-6.4,6.8-12.9,10.6-19.1c2.9-4.9,6.6-9.4,9.6-14.2
				c3.3-5.2,6.1-10.6,9.5-15.7c2.6-3.8,5.8-7.1,8.8-10.6c1.8-2,3.6-4.6,6.7-3.8c3.5,1,24,9.2-1.9,48.2
				c-9.3,12.7-31.2,23.5-33.7,24.4c-0.2,0.1-0.5,0.2-0.5,0.2c0,0.2,0.1,0.5,0.2,0.6c8.5,7.6,19.9,9.5,25.5,9.3
				c25.3-1.3,38.6-22,39.3-22.6c0.7-0.6,3.1-1.7,6.6,1c3.5,2.6-0.3,8.7-0.3,8.7s-17.8,21.4-48.5,22.3c-7.9-0.5-16.7-1.8-22.8-5.7
				c-0.1-0.1-0.4-0.1-0.6-0.1c0,0.4,4,23.8-2.8,36.6c-16.3,28.6-34.2,33.5-40.1,30.3c-5.9-3.1-12.9-11.3-0.2-33.4
				c4.1-7,7.5-14.3,11.6-21.2c3.1-5.3,6.9-10.3,10.3-15.5c0.3-0.4,0.5-1,0.7-1.4c1.4-2,2.8-4,4.1-6c0.1-0.1,1.4-1.4,1.3-1.7
				c-0.5,0.3-2.8,1.3-3,1.8c-0.9,1.9-2.1,2.9-4.2,5.9c-4.3,5.1-7.3,6.9-12.2,9.4c-4.3,2.2-9.1,1.5-12.7-1.8c-1.3-1.2-1.6-4-1.7-6.1
				c-0.5-8.5,2.6-16,7.2-22.8c2.8-4.3,6.8-7.7,12.1-8.9c4.2-1,8.8,0.8,10.3,4.8c1,2.8,1,3.9,1.7,6.8c0.2,1.1,0.5,3.1,0.5,4.4
				L275.1,104.5z M283,139.5c-0.1-6.1-0.6-10.3-1.7-15.8c-0.1-0.3-0.3-0.6-0.5-0.9c-0.2,0.2-0.3,0.3-0.4,0.5
				c-1.7,2.4-3.5,4.8-5.1,7.3c-4,6.2-8.1,12.4-11.6,18.8c-3.8,7.1-5.2,10.6-8.6,17.9c-1.8,3.5-1.2,5.8,0.2,6.5
				c5.5,1.6,16.1-7.7,20.6-13.6C280.8,153.8,282.7,148,283,139.5z M326.6,53.4c0-0.8,0.7-2-1-1.3c-0.3,0.2-0.7,0.4-0.9,0.7
				c-3.5,5.2-7.1,10.4-10.6,15.6c-3,4.6-6,9.2-9,13.8c-3,4.7-5.9,9.4-8.9,14.2c-0.1,0.2-0.1,0.4-0.2,0.6c0.2,0,0.5,0,0.7-0.1
				c2.6-1.7,5.1-3.4,7.6-5.1c7.1-4.9,12.3-11.6,15.8-19.3C322.9,66.3,324.5,59.7,326.6,53.4z M256.1,120.6c3.2-2.3,4.3-4.5,5.5-6.8
				c0.9-1.7,0.2-2-1.4-2.2c-3.4-0.5-6-2.3-7.8-5.2c-0.1-0.2-0.2-0.5-0.4-0.8c-0.2,0.3-0.4,0.5-0.5,0.8c-0.6,2.5-1.2,5-1.8,7.5
				C249.1,118,250.2,124.1,256.1,120.6z M266.3,99.9c1.6-2.4-1.5-3.1-2-3.1c-2.5,0.1-4.1,2-3.8,4.3c0.2,1.2,2.4,2.2,3.7,3.2
				C264.8,102.9,265.5,101.5,266.3,99.9z"/>
		</g>
		<g id="Sunshine_1_">
			<path class="st9" d="M430.8,28.1c34.9,0,42.7,42.8,42.2,46.3c-0.3,2.2,0,4.8-1.7,5.4l-1,1.7l-9,0l-0.8-1.7
				c-1.5-0.7-1.8-3.8-1.9-5.8c-0.5-10.6-6.8-32-28.5-32c-30,0-34.9,21.8-36.1,27.1c-1.8,8.2-0.6,16.4,4.8,23.1
				c6.5,8.1,13.2,16.1,20.4,23.6c5.6,5.9,11.8,11.4,18.2,16.4c8.7,6.6,17,13.4,23.6,22.3c4.7,6.4,9.6,12.8,11.2,20.6
				c1,4.9-0.9,15.4-0.9,15.4s-4,27.8-47,27.8s-51.6-27.8-51.4-29.7c-0.1-3.2,3-3.3,3-3.3l13.4,0.1c0,0,4.1-0.5,5.7,3.4
				c2.5,5.1,6.6,6.4,11.7,8.2c8.6,3.1,17.2,2.7,26.1,0.5c5.8-1.4,7.6-5.8,9-9.8c1.3-3.6,2.1-7.2,2.3-10.9c0.3-4.8-0.3-9.6-2-14.4
				c-15.9-33.2-62-54.5-62-86.8C380.4,54.4,393,28.1,430.8,28.1z"/>
			<path class="st9" d="M704.4,111.7c0.3-5.5,1.2-22.8,28.2-22.8c23.4,0,23.2,17.7,22.9,25c0,0-31.1,0.5-34.4,0.6
				c-0.5,0-1.3,0.9-1.3,1.4c-0.2,5.7,6,10.5,14.1,10.5c5.2,0,10.2-0.2,14.6-3c1.9-1.3,3.6-3.4,6.3-6.3c3.1,0.1,9-0.1,9-0.1
				c0.2,2.8-10,20.7-30.6,20.7C704.4,137.6,704.4,118.4,704.4,111.7z M740,107.1c2.3,0,2.9-1.5,2.9-2.8c0-1.4-1.1-2.4-3.2-2.4
				c-2,0-3,0.6-3,2.3S737.7,107.1,740,107.1z M724,106.9c1.7,0,2.3-0.6,2.3-2.1c0-1.5-0.5-2.9-2.4-2.9s-2.4,1.2-2.4,2.7
				C721.6,106.2,722.3,106.9,724,106.9z"/>
			<path class="st9" d="M434.2,89.1h13.6c0,0-2.4,10.5-2.4,18.7s1,15.5,22.8,15.5c21.8,0,21.3-9.2,21.3-16.8s-4.1-17.4-4.1-17.4
				h14.2c0,0,0.5,19.1,0.1,26.6c0.1,9-11.7,21.9-31.6,21.9c-19.9,0-33.9-13.3-33.9-22.8C434.2,112.3,434.2,89.1,434.2,89.1z"/>
			<path class="st9" d="M527,88.7c20,0.4,21.8,12.4,21.7,15.9l0.8,33.1c0,0-9.2,0.1-10.6,0.1c0,0-0.3-17.2-0.2-21.5
				c0-4.8,0.3-15.3-11.7-15.3c-5.7,0-11,1.8-12.8,4.3c0,0-0.1,8.3-0.2,10.9c0.1,7-0.2,21.4-0.2,21.4h-10.4c0,0,0.6-26,0.7-32.5
				c0-1.6,0-7.5,0-7.5C506.9,93,514.9,88.7,527,88.7z"/>
			<path class="st9" d="M615.3,88.7c20,0.4,21.8,12.4,21.7,15.9l0.8,33.1c0,0-9.2,0.1-10.6,0.1c0,0-0.3-17.2-0.2-21.5
				c0-4.8,0.3-15.3-11.7-15.3c-5.7,0-11,1.8-12.8,4.3c0,0-0.1,8.3-0.2,10.9c0.1,7-0.2,21.4-0.2,21.4h-10.4c0,0,0.6-26,0.7-32.5
				c0-1.6,0-72.6,0-72.6s-0.1-3.9,3.7-3.9s4,3.9,4,3.9l0.2,58.8C604.2,89.8,609.2,88.7,615.3,88.7z"/>
			<path class="st9" d="M679.3,88.7c20,0.4,21.8,12.4,21.7,15.9l0.8,33.1c0,0-9.2,0.1-10.6,0.1c0,0-0.3-17.2-0.2-21.5
				c0-4.8,0.3-15.3-11.7-15.3c-5.7,0-11,1.8-12.8,4.3c0,0-0.1,8.3-0.2,10.9c0.1,7-0.2,21.4-0.2,21.4h-10.4c0,0,0.6-26,0.7-32.5
				c0-1.6,0-7.5,0-7.5C659.3,93,667.3,88.7,679.3,88.7z"/>
			<path class="st9" d="M568.6,89.1c6.9,0.3,12.2,2.7,16.7,8l0.1,8.1c-1.4-1.5-1.7-2.1-4.1-3.8c-5.5-4.2-13.5-6.5-18.8-1.9
				c-4.2,4.1-0.4,6.2,1.5,7.1c2.8,1.1,6.9,2.2,8.3,2.7c6.6,2.1,11,2.7,15.2,7.9c2.7,3.6,1.7,9.9,0,13.1c-4.4,8.2-11.6,8.1-18.7,6.7
				c-4.9-1-9.6-2.6-14.3-4c-0.6-0.2-2.1-0.7-2.5-1.1l0.1-11.5c1.2,0.8,2.3,1.9,2.9,2.4c5.5,4.6,11.2,8.1,18.6,5.9
				c2.4-0.7,3.8-3,2.5-6.1c-1.1-2-3.1-2.9-5.3-3.7c-5-2-9.2-3.8-14.1-6c-4.4-2.3-6.4-9.1-3.1-14.9C557.5,91.2,561.2,89.2,568.6,89.1
				z"/>
			<path class="st9" d="M646.5,89.1c5.1,0,4.6,4.7,4.6,4.7l-0.1,43.9h-8.7l-0.4-44C641.9,93.7,641.4,89.1,646.5,89.1z"/>
			<path class="st9" d="M646.8,59.4c2.5,0,5.6,3.3,5.6,5.8c0,2.2-3.7,5.7-5.9,5.6c-2.3-0.1-4.8-3-4.8-5.8
				C641.7,62.6,644.6,59.4,646.8,59.4z"/>
		</g>
	</g>
	<g id="illustration_1_">
		<g id="_x39_mvY5n.tif_3_">
			<g>
				<path class="st9" d="M948.4,138.7c-1.2-3.2-3.1-6-5.9-8.2c-2.3-1.8-4.7-3.1-7.7-3.3c-3.3-0.1-6.5,0.3-9.6,1.3
					c-0.6,0.2-1.2,0.4-1.8,0.6c0.5-3,0.6-5.6-0.5-8.1c-1.5-3.3-3.9-5.7-7-7.6c-3.6-2.2-7.4-3.7-11.4-4.8c-2.2-0.6-4.4-1.2-6.6-1.8
					c-2.2-0.6-4.5-1.1-6.7-1.6c-1.3-0.3-2.6-0.4-3.8-0.7c-1.8-0.3-3.6-0.8-5.4-1c-2.2-0.3-4.4-0.5-6.5-0.7c-3.4-0.3-6.8-0.9-10.3-1
					c-10.6-0.3-21.3-0.4-31.9,0.5c-2.3,0.2-4.6,0.4-6.9,0.6c-2.3,0.3-4.5,0.7-6.8,1c-1.6,0.2-3.2,0.3-4.7,0.7
					c-2.9,0.6-5.8,1.4-8.7,2.2c-3,0.8-6,1.9-9,2.8c-4.5,1.3-8.5,3.3-12.1,6.3c-2.2,1.8-3.8,4.1-3.9,6.9c-0.1,6,0.1,12,0.4,18
					c0.2,4.7,0.8,9.4,1.2,14.1c0.2,2.2,0.4,4.5,0.6,6.7c0.2,1.7,0.6,3.4,0.9,5.2c0.1,0.8,0.3,2.1,0.6,2.9c1,3.2,2,6.2,3,9.1
					c1.3,3.7,3.2,7,5.3,10.3c3.5,5.5,8,10.1,12.9,14.4c4.8,4.2,10,7.9,15.9,10.6c3,1.3,5.9,2.7,9,3.8c2.6,0.9,5.5,1.2,8.2,1.9
					c5.9,1.4,11.9,1.3,17.9,1c3.3-0.2,6.5-0.8,9.7-1.5c3.3-0.8,6.5-1.8,9.7-2.9c4.4-1.5,8.3-3.8,12.1-6.4c4.8-3.1,9.2-6.7,13.2-10.7
					c5.3-5.3,9.9-11.2,12.8-18.2c1.3-3.1,2.3-6.3,3.4-9.4c0.2-0.5,1.1-4.4,1.2-5.6c0.7,0.2,4.6,1.1,4.9,1.2c3.5,0.6,6.1,0,8.9-0.9
					c3.3-1.1,6.2-3,8.6-5.6c2.1-2.2,4.2-4.3,5.2-7.2c0.6-1.7,1.2-3.4,1.7-5.1C949.6,145.1,949.5,141.8,948.4,138.7z M921.8,146.3
					c0.1-0.7,0.2-1.5,0.1-2.3c-0.4-2,0.9-2.9,2.3-3.7c1.7-0.9,3.3-1.8,5-2.5c5.1-2,9.7,0.1,10.2,6.2c0.2,2,0.3,4.1-0.8,6.1
					c-1.2,2.1-3.1,3.4-5.2,4.3c-2.3,0.9-4.8,1.5-7.3,1.2c-1.8-0.2-3.5-0.7-5.4-1.1C921.1,151.6,921.5,148.9,921.8,146.3z
					 M783.5,123.2c0.9-4,3.7-6.1,7-7.7c3.2-1.6,6.6-2.8,10-4c3.5-1.2,7.1-2.3,10.7-3.3c2.3-0.6,4.7-0.9,7.1-1.3
					c4-0.6,7.9-1.1,11.9-1.6c2.1-0.3,4.3-0.4,6.4-0.6c0,0,0-0.1,0-0.1c2.1,0,4.3,0,6.4,0c4.4-0.1,8.7-0.4,13.1-0.4
					c2.9,0,5.9,0.4,8.8,0.6c1.5,0.1,3.1,0.2,4.6,0.3c2.6,0.2,5.1,0.3,7.7,0.6c3.4,0.4,6.7,1,10.1,1.5c1.5,0.2,3,0.4,4.4,0.7
					c2.1,0.4,4.1,0.9,6.2,1.5c2.1,0.6,4.3,1.1,6.3,1.9c5.1,2,10.3,4,14,8.4c3,3.5,2.5,7.7-1.2,10.2c-2.8,1.9-5.9,3.4-8.9,5
					c-0.2,0.1-0.6,0.1-0.8,0c-2.9-1.1-5.8-2.2-8.8-3.2c-3-1-6-1.9-9-2.7c-2-0.5-4.1-0.8-6.2-1.3c-2.3-0.5-4.6-1.1-7-1.6
					c-1.4-0.3-2.9-0.4-4.3-0.6c-1.8-0.3-3.5-0.7-5.3-1c-1.9-0.3-3.8-0.6-5.7-0.7c-5.8-0.3-11.6-0.6-17.4-0.7
					c-3.5-0.1-7,0.1-10.4,0.3c-3.1,0.2-6.1,0.5-9.2,0.9c-3.1,0.4-6.2,0.9-9.2,1.7c-3.6,0.9-7.1,2-10.6,3.3c-3.3,1.3-6.5,3-9.8,4.5
					c-0.4,0.2-1.1,0.1-1.4-0.1c-2.3-1.4-4.6-2.9-6.9-4.4C784.4,128.5,783.1,124.8,783.5,123.2z M904.9,136.4
					c-2.8,0.8-5.5,1.5-8.3,2.2c-2.9,0.8-5.8,1.5-8.7,2.2c-1.5,0.3-3.1,0.4-4.7,0.7c-2,0.3-4,0.7-6,1c-0.1,0-0.3,0-0.4,0
					c-2.9,0.2-5.9,0.4-8.8,0.7c-9.2,1-18.4,0.5-27.6,0.5c-3.2,0-6.4-0.3-9.5-0.6c-2.9-0.3-5.9-0.6-8.8-1.1
					c-3.5-0.6-6.9-1.4-10.4-2.1c-1.9-0.4-3.9-0.7-5.8-1.3c-2.7-0.8-5.3-1.7-7.9-2.6c-0.8-0.3-1.5-0.6-2.2-0.9c0-0.2,0-0.3,0-0.5
					c3.2-1.5,6.4-3,9.7-4.3c2.2-0.9,4.6-1.3,6.9-1.9c2.3-0.6,4.6-1.1,6.8-1.6c1.2-0.3,2.5-0.5,3.7-0.6c1.9-0.2,3.9-0.2,5.7-0.7
					c2.9-0.8,5.7-0.7,8.6-0.7c0.8,0,1.7,0,2.5,0c3.9-0.1,7.8-0.3,11.7-0.2c2.8,0.1,5.5,0.6,8.3,0.9c0.9,0.1,1.9-0.2,2.8,0
					c3,0.5,6,1.1,9,1.7c1.1,0.2,2.3,0.4,3.4,0.6c3.3,0.6,6.7,1,10,1.8c3.9,0.9,7.7,2.1,11.6,3.3c2.8,0.9,5.6,1.9,8.4,2.9
					C904.9,136,904.9,136.2,904.9,136.4z M919.2,142.9c-0.2,3.4-0.4,6.7-0.7,10.1c-0.5,4.2-1,8.4-1.7,12.6c-1.3,8-3.9,15.5-8.6,22.1
					c-2.1,3-4.6,5.7-7,8.4c-2.3,2.5-4.6,4.9-7.2,7c-4,3.4-8.4,6.4-13.2,8.6c-3.1,1.4-6.3,2.7-9.5,3.8c-1.9,0.7-3.9,0.8-5.8,1.3
					c-3.3,0.8-6.6,1.1-9.9,1.2c-2.5,0-4.9,0.4-7.4,0.3c-3.3-0.2-6.6-0.4-9.8-1.1c-5.8-1.2-11.4-3-16.7-6c-4.5-2.5-8.8-5.1-12.6-8.6
					c-2.9-2.6-5.9-5.2-8.5-8.1c-3.8-4.3-7.3-9-9.4-14.5c-1.2-3-2.3-6-3.2-9.1c-0.7-2.3-0.9-4.7-1.3-7c-0.5-3.3-1.1-6.6-1.6-9.8
					c0-0.1,0-0.2,0-0.3c-0.2-2.8-0.5-5.6-0.6-8.4c-0.2-3.4-0.4-6.7-0.6-10.1c-0.1-1.5-0.4-3-0.6-4.5c0.2-0.1,0.3-0.2,0.5-0.3
					c0.9,0.6,1.8,1.3,2.7,1.9c3.8,2.9,8.1,4.8,12.5,6.5c2.7,1,5.6,1.7,8.4,2.4c3.1,0.8,6.2,1.5,9.3,2.2c1.3,0.3,2.6,0.4,3.9,0.6
					c2.4,0.3,4.7,0.4,7.1,0.7c3.2,0.3,6.4,0.8,9.6,1c1.9,0.2,3.9,0.1,5.8,0.1c6.8,0.1,13.6,0.4,20.4,0.4c3.2,0,6.5-0.6,9.7-0.9
					c1.9-0.2,3.7-0.4,5.6-0.6c3-0.4,6-0.7,9-1.3c3.6-0.7,7.3-1.7,10.8-2.7c3.7-1.1,7.5-2.1,11.1-3.6c3.1-1.2,6-3,9.1-4.5
					c0.4-0.2,0.7-0.4,1.5-0.8c-0.3,3.7-0.5,6.9-0.8,10.2C919.2,142.5,919.2,142.7,919.2,142.9z M943.9,155.1
					c-2.6,4-6.1,6.9-10.6,8.4c-3.4,1.1-7,1.2-10.6,0.3c-1-0.3-1.9-0.5-3.2-0.8c0.3-2,0.6-4,0.9-6.1c1.8,0.3,3.5,0.8,5.1,0.9
					c1.7,0.1,3.5,0.2,5.1-0.2c1.9-0.5,3.7-1.4,5.4-2.4c2.5-1.6,4.4-3.8,5.3-6.8c1.2-3.8,0.3-7.1-2.4-9.9c-1.6-1.6-3.7-2.5-6.1-2.6
					c-3.6-0.2-7,0.3-9.8,2.7c-0.2,0.1-0.5,0.1-0.6,0.1c0.1-2.1,0.2-4,0.3-6.3c2.8-1,5.7-2.4,8.8-3.1c3-0.7,6,0.2,8.6,1.9
					c3.5,2.3,5.4,5.6,6.3,9.6C947.6,145.9,946.7,150.7,943.9,155.1z"/>
				<path class="st11" d="M783.6,130.6c0.9,0.6,1.8,1.3,2.7,1.9c3.8,2.9,8.1,4.8,12.5,6.5c2.7,1,5.6,1.7,8.4,2.4
					c3.1,0.8,6.2,1.5,9.3,2.2c1.3,0.3,2.6,0.4,3.9,0.6c2.4,0.3,4.7,0.4,7.1,0.7c3.2,0.3,6.4,0.8,9.6,1c1.9,0.2,3.9,0.1,5.8,0.1
					c6.8,0.1,13.6,0.4,20.4,0.4c3.2,0,6.5-0.6,9.7-0.9c1.9-0.2,3.7-0.4,5.6-0.6c3-0.4,6-0.7,9-1.3c3.6-0.7,7.3-1.7,10.8-2.7
					c3.7-1.1,7.5-2.1,11.1-3.6c3.1-1.2,6-3,9.1-4.5c0.4-0.2,0.7-0.4,1.5-0.8c-0.3,3.7-0.5,6.9-0.8,10.2c0,0.2,0,0.4,0,0.6
					c-0.2,3.4-0.4,6.7-0.7,10.1c-0.5,4.2-1,8.4-1.7,12.6c-1.3,8-3.9,15.5-8.6,22.1c-2.1,3-4.6,5.7-7,8.4c-2.3,2.5-4.6,4.9-7.2,7
					c-4,3.4-8.4,6.4-13.2,8.6c-3.1,1.4-6.3,2.7-9.5,3.8c-1.9,0.7-3.9,0.8-5.8,1.3c-3.3,0.8-6.6,1.1-9.9,1.2c-2.5,0-4.9,0.4-7.4,0.3
					c-3.3-0.2-6.6-0.4-9.8-1.1c-5.8-1.2-11.4-3-16.7-6c-4.5-2.5-8.8-5.1-12.6-8.6c-2.9-2.6-5.9-5.2-8.5-8.1c-3.8-4.3-7.3-9-9.4-14.5
					c-1.2-3-2.3-6-3.2-9.1c-0.7-2.3-0.9-4.7-1.3-7c-0.5-3.3-1.1-6.6-1.6-9.8c0-0.1,0-0.2,0-0.3c-0.2-2.8-0.5-5.6-0.6-8.4
					c-0.2-3.4-0.4-6.7-0.6-10.1c-0.1-1.5-0.4-3-0.6-4.5C783.2,130.8,783.4,130.7,783.6,130.6z"/>
				<path class="st11" d="M836.6,104.6c2.1,0,4.3,0,6.4,0c4.4-0.1,8.7-0.4,13.1-0.4c2.9,0,5.9,0.4,8.8,0.6c1.5,0.1,3.1,0.2,4.6,0.3
					c2.6,0.2,5.1,0.3,7.7,0.6c3.4,0.4,6.7,1,10.1,1.5c1.5,0.2,3,0.4,4.4,0.7c2.1,0.4,4.1,0.9,6.2,1.5c2.1,0.6,4.3,1.1,6.3,1.9
					c5.1,2,10.3,4,14,8.4c3,3.5,2.5,7.7-1.2,10.2c-2.8,1.9-5.9,3.4-8.9,5c-0.2,0.1-0.6,0.1-0.8,0c-2.9-1.1-5.8-2.2-8.8-3.2
					c-3-1-6-1.9-9-2.7c-2-0.5-4.1-0.8-6.2-1.3c-2.3-0.5-4.6-1.1-7-1.6c-1.4-0.3-2.9-0.4-4.3-0.6c-1.8-0.3-3.5-0.7-5.3-1
					c-1.9-0.3-3.8-0.6-5.7-0.7c-5.8-0.3-11.6-0.6-17.4-0.7c-3.5-0.1-7,0.1-10.4,0.3c-3.1,0.2-6.1,0.5-9.2,0.9
					c-3.1,0.4-6.2,0.9-9.2,1.7c-3.6,0.9-7.1,2-10.6,3.3c-3.3,1.3-6.5,3-9.8,4.5c-0.4,0.2-1.1,0.1-1.4-0.1c-2.3-1.4-4.6-2.9-6.9-4.4
					c-1.6-1-2.8-4.7-2.5-6.4c0.9-4,3.7-6.1,7-7.7c3.2-1.6,6.6-2.8,10-4c3.5-1.2,7.1-2.3,10.7-3.3c2.3-0.6,4.7-0.9,7.1-1.3
					c4-0.6,7.9-1.1,11.9-1.6c2.1-0.3,4.3-0.4,6.4-0.6C836.6,104.7,836.6,104.7,836.6,104.6z"/>
				<path class="st3" d="M904.9,136.4c-2.8,0.7-5.5,1.5-8.3,2.2c-2.9,0.8-5.8,1.5-8.7,2.2c-1.5,0.3-3.1,0.4-4.7,0.7
					c-2,0.3-4,0.7-6,1c-0.1,0-0.3,0-0.4,0c-2.9,0.2-5.9,0.4-8.8,0.7c-9.2,1-18.4,0.5-27.6,0.5c-3.2,0-6.4-0.3-9.5-0.6
					c-2.9-0.3-5.9-0.6-8.8-1.1c-3.5-0.6-6.9-1.4-10.4-2.1c-1.9-0.4-3.9-0.7-5.8-1.3c-2.7-0.8-5.3-1.7-7.9-2.6
					c-0.8-0.3-1.5-0.6-2.2-0.9c0-0.2,0-0.3,0-0.5c3.2-1.5,6.4-3,9.7-4.3c2.2-0.9,4.6-1.3,6.9-1.9c2.3-0.6,4.6-1.1,6.8-1.6
					c1.2-0.3,2.5-0.5,3.7-0.6c1.9-0.2,3.9-0.2,5.7-0.7c2.9-0.8,5.7-0.7,8.6-0.7c0.8,0,1.7,0,2.5,0c3.9-0.1,7.8-0.3,11.7-0.2
					c2.8,0.1,5.5,0.6,8.3,0.9c0.9,0.1,1.9-0.2,2.8,0c3,0.5,6,1.1,9,1.7c1.1,0.2,2.3,0.4,3.4,0.6c3.3,0.6,6.7,1,10,1.8
					c3.9,0.9,7.7,2.1,11.6,3.3c2.8,0.9,5.6,1.9,8.4,2.9C904.9,136,904.9,136.2,904.9,136.4z"/>
				<path class="st11" d="M922.3,138.6c0.1-2.1,0.2-4,0.3-6.3c2.8-1,5.7-2.4,8.8-3.1c3-0.7,6,0.2,8.6,1.9c3.5,2.3,5.4,5.6,6.3,9.6
					c1.2,5.2,0.3,9.9-2.5,14.3c-2.6,4-6.1,6.9-10.6,8.4c-3.4,1.1-7,1.2-10.6,0.3c-1-0.3-1.9-0.5-3.2-0.8c0.3-2,0.6-4,0.9-6.1
					c1.8,0.3,3.5,0.8,5.1,0.9c1.7,0.1,3.5,0.2,5.1-0.2c1.9-0.5,3.7-1.4,5.4-2.4c2.5-1.6,4.4-3.8,5.3-6.8c1.2-3.8,0.3-7.1-2.4-9.9
					c-1.6-1.6-3.7-2.5-6.1-2.6c-3.6-0.2-7,0.3-9.8,2.7C922.7,138.7,922.4,138.6,922.3,138.6z"/>
				<path class="st6" d="M920.7,154.5c0.4-2.9,0.8-5.5,1.1-8.2c0.1-0.7,0.2-1.5,0.1-2.3c-0.4-2,0.9-2.9,2.3-3.7
					c1.7-0.9,3.3-1.8,5-2.5c5.1-2,9.7,0.1,10.2,6.2c0.2,2,0.3,4.1-0.8,6.1c-1.2,2.1-3.1,3.4-5.2,4.3c-2.3,0.9-4.8,1.5-7.3,1.2
					C924.3,155.4,922.6,154.9,920.7,154.5z"/>
			</g>
		</g>
		<path id="sun_4_" class="st10" d="M905.7,125.5c0,4.3,0.2,6.9-0.7,10.9c-0.1,0.5-25,8.4-55.4,7.9c-30.4-0.5-50.4-7.7-50.4-7.7
			c-0.5-2.7-1.3-7.6-1.3-11.1c0-29.8,24.1-53.9,53.9-53.9C881.5,71.6,905.7,95.8,905.7,125.5z"/>
		<path class="st10" d="M807.6,43.9c3.9,1.2,7,12.4,10.5,15.5c3.5,3.1,3.5,3.1,3.5,3.1v2c0,0,1.8,1.7,1.8,2.8c0,1.1-1.8,0.3-1.8,0.3
			s-5.4-4.3-7-4.7c-1.6-0.4-3.1-3.5-3.1-3.5s-2.7-9.7-3.9-10.5C806.5,48.2,807.6,43.9,807.6,43.9z"/>
		<path class="st10" d="M792.4,79.3l0.8,0.9c0,0,3.6,1.9,6.5,1.6c2.9-0.3,0.6,1.8,0.6,1.8l-3.4,2.4l-4-1.2c0,0-6.8-1.5-9.2-4.4
			c-0.6-0.7-0.5-2,0.3-2.4c0.8-0.4,2.8,0.1,3,0c0.1-0.1,1.4-0.8,1.4-0.8s-0.4-0.4,0.5,0.5c0.9,1,1.6,1.3,1.6,1.3L792.4,79.3z"/>
		<polygon class="st10" points="884.8,75.6 878.8,62.9 865,60.7 875.2,51.1 873,37.3 885.3,44 897.8,37.7 895.2,51.4 905,61.3
			891.2,63.1 		"/>
		<polygon class="st10" points="928.5,53.5 924.5,45.1 915.3,43.6 922.1,37.3 920.7,28.1 928.8,32.6 937,28.4 935.3,37.5
			941.9,44.1 932.7,45.2 		"/>
		<polygon class="st10" points="918,80.4 915.4,74.9 909.3,73.9 913.8,69.7 912.9,63.7 918.2,66.6 923.7,63.8 922.6,69.8
			926.9,74.2 920.8,75 		"/>
	</g>
</g>
</svg>
