<?xml version="1.0" encoding="utf-8"?>
<!-- Generator: Adobe Illustrator 16.0.0, SVG Export Plug-In . SVG Version: 6.00 Build 0)  -->
<!DOCTYPE svg PUBLIC "-//W3C//DTD SVG 1.1//EN" "http://www.w3.org/Graphics/SVG/1.1/DTD/svg11.dtd">
<svg version="1.1" id="Layer_1" xmlns="http://www.w3.org/2000/svg" xmlns:xlink="http://www.w3.org/1999/xlink" x="0px" y="0px"
	 width="50px" height="50px" viewBox="0 0 50 50" enable-background="new 0 0 50 50" xml:space="preserve">
<g>
	<path fill-rule="evenodd" clip-rule="evenodd" d="M46.961,23.412c0,1.215,0,2.428,0,3.64c-0.073,0.27-0.173,0.533-0.218,0.808
		c-1.352,8.522-5.978,14.484-14.027,17.638c-1.866,0.728-3.915,0.988-5.879,1.464c-1.213,0-2.426,0-3.639,0
		c-0.301-0.077-0.6-0.178-0.906-0.228c-8.396-1.355-14.288-5.928-17.464-13.822c-0.748-1.858-1.038-3.902-1.539-5.859
		c0-1.212,0-2.425,0-3.64c0.074-0.306,0.172-0.606,0.22-0.918C4.854,13.736,9.633,7.715,17.94,4.611
		c1.745-0.652,3.644-0.891,5.472-1.322c1.142,0,2.283,0,3.425,0c0.345,0.076,0.687,0.17,1.035,0.226
		C36.3,4.854,42.242,9.402,45.411,17.35C46.178,19.271,46.457,21.387,46.961,23.412z M13.213,19.742c0,5.608,0,11.031,0,16.486
		c7.982,0,15.877,0,23.791,0c0-5.444,0-10.813,0-16.355c-3.229,2.295-6.308,4.476-9.377,6.668c-2.515,1.797-2.494,1.782-4.99-0.036
		C19.56,24.265,16.454,22.064,13.213,19.742z M12.049,14.004c0.351,0.298,0.498,0.442,0.663,0.56
		c3.917,2.85,7.846,5.684,11.745,8.556c0.602,0.444,1.002,0.273,1.504-0.096c3.443-2.533,6.897-5.05,10.343-7.578
		c0.549-0.402,1.077-0.832,1.858-1.441C29.309,14.004,20.811,14.004,12.049,14.004z"/>
</g>
</svg>
