<?xml version="1.0" encoding="utf-8"?>
<!-- Generator: Adobe Illustrator 16.0.0, SVG Export Plug-In . SVG Version: 6.00 Build 0)  -->
<!DOCTYPE svg PUBLIC "-//W3C//DTD SVG 1.1//EN" "http://www.w3.org/Graphics/SVG/1.1/DTD/svg11.dtd">
<svg version="1.1" id="Layer_1" xmlns="http://www.w3.org/2000/svg" xmlns:xlink="http://www.w3.org/1999/xlink" x="0px" y="0px"
	 width="50px" height="50px" viewBox="0 0 50 50" enable-background="new 0 0 50 50" xml:space="preserve">
<g>
	<path fill-rule="evenodd" clip-rule="evenodd" d="M29.022,34.115c0.948-0.187,1.832-0.322,2.696-0.539
		c2.601-0.652,4.791-1.926,5.989-4.435c1.261-2.64,1.546-5.419,0.817-8.269c-0.282-1.103-0.848-2.074-1.588-2.935
		c-0.202-0.234-0.247-0.425-0.155-0.731c0.514-1.698,0.369-3.378-0.253-5.02c-0.062-0.162-0.34-0.338-0.522-0.342
		c-1.041-0.024-2.008,0.314-2.925,0.762c-0.804,0.393-1.564,0.875-2.357,1.292c-0.175,0.092-0.424,0.143-0.611,0.098
		c-3.419-0.833-6.833-0.835-10.252-0.004c-0.211,0.051-0.504-0.028-0.698-0.147c-1.418-0.867-2.856-1.679-4.526-1.961
		c-0.05-0.009-0.101-0.022-0.152-0.029c-0.872-0.125-0.96-0.074-1.212,0.755c-0.478,1.572-0.555,3.149-0.062,4.738
		c0.041,0.132,0.001,0.349-0.087,0.45c-1.955,2.251-2.333,4.904-1.917,7.727c0.147,0.999,0.387,2.006,0.75,2.945
		c1.104,2.852,3.366,4.364,6.221,5.103c0.881,0.228,1.785,0.368,2.735,0.559c-0.714,0.77-1.099,1.673-1.282,2.674
		c-0.021,0.112-0.188,0.236-0.313,0.285c-2.325,0.895-4.583,0.513-6.014-1.858c-0.675-1.119-1.604-1.945-2.926-2.209
		c-0.327-0.066-0.69-0.056-1.019,0.009c-0.46,0.091-0.529,0.349-0.221,0.693c0.148,0.165,0.319,0.325,0.508,0.438
		c1.181,0.704,1.931,1.764,2.436,3.001c0.805,1.973,2.359,2.875,4.375,3.031c1.004,0.077,2.024-0.058,3.091-0.098
		c0,1.328,0.037,2.724-0.015,4.117c-0.026,0.711-0.779,1.039-1.604,0.765c-1.845-0.611-3.589-1.442-5.175-2.562
		c-6.566-4.634-9.879-10.983-9.521-19.014c0.446-9.99,7.762-18.194,17.623-20.09C32.16,1.14,43.173,8.045,46.1,19.143
		c2.856,10.831-3.351,22.288-13.99,25.82c-1.082,0.358-1.706-0.093-1.705-1.242c0.003-1.813,0.01-3.625,0.018-5.438
		C30.43,36.76,30.153,35.33,29.022,34.115z"/>
	<path fill-rule="evenodd" clip-rule="evenodd" d="M17.304,37.786c0.194,0.172,0.323,0.287,0.451,0.401
		c-0.165,0.115-0.321,0.295-0.5,0.322c-0.117,0.017-0.267-0.19-0.402-0.296C16.986,38.087,17.118,37.962,17.304,37.786z"/>
	<path fill-rule="evenodd" clip-rule="evenodd" d="M14.584,37.118c-0.24,0.166-0.394,0.324-0.441,0.296
		c-0.187-0.107-0.352-0.264-0.494-0.428c-0.018-0.02,0.188-0.297,0.216-0.285C14.075,36.791,14.267,36.924,14.584,37.118z"/>
	<path fill-rule="evenodd" clip-rule="evenodd" d="M15.53,37.506c0.177,0.202,0.311,0.354,0.443,0.505
		c-0.147,0.08-0.324,0.254-0.433,0.219c-0.172-0.056-0.298-0.252-0.443-0.39C15.217,37.748,15.337,37.655,15.53,37.506z"/>
	<path fill-rule="evenodd" clip-rule="evenodd" d="M19.012,37.555c0.178,0.192,0.29,0.313,0.401,0.432
		c-0.173,0.114-0.334,0.279-0.522,0.322c-0.1,0.023-0.248-0.165-0.374-0.259C18.658,37.909,18.8,37.767,19.012,37.555z"/>
	<path fill-rule="evenodd" clip-rule="evenodd" d="M13.013,36.355c-0.186-0.284-0.324-0.442-0.389-0.625
		c-0.02-0.056,0.16-0.183,0.248-0.276c0.13,0.157,0.282,0.302,0.378,0.478C13.279,35.984,13.148,36.123,13.013,36.355z"/>
	<path fill-rule="evenodd" clip-rule="evenodd" d="M11.974,34.203c0.174,0.238,0.295,0.385,0.384,0.548
		c0.012,0.021-0.195,0.203-0.211,0.19c-0.138-0.103-0.274-0.221-0.366-0.362C11.754,34.537,11.866,34.404,11.974,34.203z"/>
</g>
</svg>
