<?xml version="1.0" encoding="utf-8"?>
<!-- Generator: Adobe Illustrator 16.0.0, SVG Export Plug-In . SVG Version: 6.00 Build 0)  -->
<!DOCTYPE svg PUBLIC "-//W3C//DTD SVG 1.1//EN" "http://www.w3.org/Graphics/SVG/1.1/DTD/svg11.dtd">
<svg version="1.1" id="Layer_1" xmlns="http://www.w3.org/2000/svg" xmlns:xlink="http://www.w3.org/1999/xlink" x="0px" y="0px"
	 width="50px" height="50px" viewBox="0 0 50 50" enable-background="new 0 0 50 50" xml:space="preserve">
<g>
	<path fill-rule="evenodd" clip-rule="evenodd" d="M42.654,46.709c-11.816,0-23.632,0-35.448,0c-2.997-1.18-3.952-3.421-3.917-6.559
		C3.405,29.883,3.33,19.614,3.334,9.346c0.001-3.949,1.907-5.854,5.857-5.854c10.327-0.005,20.656,0.065,30.981-0.044
		c3.099-0.033,5.228,1.02,6.38,3.915c0,11.815,0,23.632,0,35.447C45.811,44.668,44.519,45.974,42.654,46.709z M37.916,21.835
		c0.763,9.304-3.877,15.747-11.605,16.405c-3.771,0.321-7.153-0.605-10.02-3.106c-4.047-3.527-5.199-8.08-4.308-13.24
		c-1.357,0-2.493,0-3.763,0c0,5.871-0.009,11.585,0.005,17.3c0.006,2.113,0.486,2.576,2.646,2.577
		c9.381,0.009,18.762,0.011,28.144,0c2.113-0.001,2.597-0.491,2.601-2.621c0.012-5.31,0.008-10.62-0.003-15.931
		c0-0.45-0.085-0.901-0.134-1.384C40.252,21.835,39.154,21.835,37.916,21.835z M16.576,25.11c0.014,4.576,3.756,8.318,8.333,8.331
		c4.564,0.013,8.344-3.732,8.377-8.299c0.031-4.646-3.785-8.454-8.431-8.41C20.254,16.775,16.562,20.511,16.576,25.11z
		 M41.622,12.702c0-0.529,0.004-1.06,0-1.589c-0.02-2.26-0.462-2.717-2.666-2.733c-1.179-0.011-2.356,0.006-3.533-0.006
		c-1.542-0.014-2.271,0.763-2.261,2.283c0.005,0.589-0.001,1.177-0.001,1.767c0,4.431,0,4.431,4.364,4.431
		C41.622,16.854,41.622,16.854,41.622,12.702z"/>
</g>
</svg>
