<?xml version="1.0" encoding="utf-8"?>
<!-- Generator: Adobe Illustrator 16.0.0, SVG Export Plug-In . SVG Version: 6.00 Build 0)  -->
<!DOCTYPE svg PUBLIC "-//W3C//DTD SVG 1.1//EN" "http://www.w3.org/Graphics/SVG/1.1/DTD/svg11.dtd">
<svg version="1.1" xmlns="http://www.w3.org/2000/svg" xmlns:xlink="http://www.w3.org/1999/xlink" x="0px" y="0px" width="300px"
	 height="166.082px" viewBox="0 0 300 166.082" enable-background="new 0 0 300 166.082" xml:space="preserve">
<g id="Layer_1" display="none">
	
		<image display="inline" overflow="visible" width="1928" height="1056" xlink:href="1EB7E657.jpg"  transform="matrix(0.7067 0 0 0.7067 -516.8003 -287.647)">
	</image>
</g>
<g id="Layer_2">
	<path fill="#F6B50E" d="M294.487,6.397c-66.695-17.958-81.285,56.753-81.285,56.753c-10.266-5.578-23.888-9.94-36.394-9.94
		c-25.482,0-47.89,13.155-60.81,33.042c-1.713-2.557-3.711-4.904-5.95-6.998c-1.518-1.42-2.441-4.458-5.707-6.646
		c-0.864-0.579-2.37,0.822-3.277,0.304c-3.008-1.719-4.8-2.268-8.232-3.165c-1.573-0.411-0.613-3.596-0.917-4.033
		c-1.002-1.448-3.081-3.768-4.89-3.768c-0.346,0-3.287,3.327-5.388,6.528c-2.821,3.966-5.461,9.424-6.898,8.284
		c-0.845-0.669-0.77-4.336-1.93-4.578c-1.283-0.267-2.031-0.321-4.863,1.657c-1.038,0.725-1.151,4.196-2.302,3.85
		c-1.823-0.547-2.988-2.113-2.748-3.716c-4.523,2.952-10.52,7.771-13.531,12.25c-0.525,0.781,0.374,3.846-0.097,4.664
		c-2.495,4.345-5.596,6.938-6.313,12.111c-0.251,1.813-7.341,8.398-7.341,10.282c0,0.438,8.363,6.242,8.457,6.668
		c0.953,4.341,1.578,5.867,6.146,12.152c0.23,0.317,7.671-8.283,7.998-8.502c5.075-3.411,8.986,0.503,6.073,8.653
		c-0.087,0.245-2.004,3.506-3.389,6.039l-35.973,11.759L8.04,152.4l-3.207,8.979l19.239-0.428l25.225-1.282l11.757,6.413
		l14.364-3.237l2.096-3.393l13.895-0.211c24.797-10.263,46.85-31.7,65.881-37.613l-4.958,14.954l-22.873,6.199l-4.703,3.634v5.985
		h18.17l38.05-14.535l2.465-20.22c0.059,0,0.117-0.003,0.174-0.003c18.957,0,32.711,2.448,45.331,10.934l-9.704,12.493
		l-10.689,1.927v8.55h24.156c0,0,14.629-30.02,14.565-31.003c-11.221-2.467-17.771-11.975-17.771-23.936
		c0-5.578,1.827-10.729,4.915-14.888c-1.485-1.945-1.428-7.326-3.1-9.109l2.575-9.61l0.011-0.014
		c1.794-27.182,24.396-48.679,52.031-48.679c2.627,0,5.206,0.199,7.729,0.574c0,0,0.007-0.002,0.007-0.002
		C299.27,6.899,294.487,6.397,294.487,6.397z"/>
	<linearGradient id="SVGID_1_" gradientUnits="userSpaceOnUse" x1="229.6855" y1="99.9893" x2="229.6855" y2="99.9893">
		<stop  offset="0" style="stop-color:#E8C68B"/>
		<stop  offset="0.8276" style="stop-color:#FFFFFF"/>
	</linearGradient>
	<path fill="url(#SVGID_1_)" d="M229.686,99.989"/>
	<linearGradient id="SVGID_2_" gradientUnits="userSpaceOnUse" x1="314.6816" y1="-45.0181" x2="314.6816" y2="48.1675">
		<stop  offset="0" style="stop-color:#FFFFFF"/>
		<stop  offset="0.0975" style="stop-color:#FDE9D1;stop-opacity:0.9208"/>
		<stop  offset="0.2121" style="stop-color:#FCD3A2;stop-opacity:0.8278"/>
		<stop  offset="0.3306" style="stop-color:#FABF79;stop-opacity:0.7316"/>
		<stop  offset="0.4511" style="stop-color:#F9B058;stop-opacity:0.6337"/>
		<stop  offset="0.5744" style="stop-color:#F8A33F;stop-opacity:0.5336"/>
		<stop  offset="0.7016" style="stop-color:#F89B2C;stop-opacity:0.4303"/>
		<stop  offset="0.8351" style="stop-color:#F79622;stop-opacity:0.3219"/>
		<stop  offset="0.9852" style="stop-color:#F7941E;stop-opacity:0.2"/>
	</linearGradient>
	<path display="none" fill="url(#SVGID_2_)" d="M378.266-32.215c0,0-36.516-17.867-76.016,12.133s-52.5,68.25-52.5,68.25
		c2.438-11.375,18.956-75.302,71.25-89.813c0,0,21.204-8.496,56.376,1.479C377.376-40.166,381.75-38.958,378.266-32.215z"/>
	<linearGradient id="SVGID_3_" gradientUnits="userSpaceOnUse" x1="0.8047" y1="155.9175" x2="0.8047" y2="89.6523">
		<stop  offset="0" style="stop-color:#FFFFFF"/>
		<stop  offset="0.1181" style="stop-color:#FFFBF4;stop-opacity:0.8922"/>
		<stop  offset="0.3858" style="stop-color:#FFF4E2;stop-opacity:0.6476"/>
		<stop  offset="0.6678" style="stop-color:#FFEFD8;stop-opacity:0.3899"/>
		<stop  offset="0.9852" style="stop-color:#FFEED4;stop-opacity:0.1"/>
	</linearGradient>
	<path display="none" fill="url(#SVGID_3_)" d="M8.075,142.661l-8.647,9.293l-1.763,1.88l-2.062,2.084l-5.104-7.015l-17.667-22.568
		l21.833-35.432c0,0,21.833-5.167,30.5,5.5c8.667,10.666-1,37.167-1,37.167L8.075,142.661z"/>
</g>
</svg>
