<?xml version="1.0" encoding="utf-8"?>
<!-- Generator: Adobe Illustrator 16.0.0, SVG Export Plug-In . SVG Version: 6.00 Build 0)  -->
<!DOCTYPE svg PUBLIC "-//W3C//DTD SVG 1.1//EN" "http://www.w3.org/Graphics/SVG/1.1/DTD/svg11.dtd">
<svg version="1.1" id="Layer_1" xmlns="http://www.w3.org/2000/svg" xmlns:xlink="http://www.w3.org/1999/xlink" x="0px" y="0px"
	 width="75px" height="45.92px" viewBox="112.5 48.121 75 45.92" enable-background="new 112.5 48.121 75 45.92"
	 xml:space="preserve">
<g id="Layer_1_1_" display="none">
	
		<image display="inline" overflow="visible" enable-background="new    " width="1932" height="1058" xlink:href="1EB7E657.jpg"  transform="matrix(0.7053 0 0 0.7053 -516.8286 -287.5957)">
	</image>
</g>
<g id="Layer_2">
	<path fill="#F6B50E" d="M184.789,53.032c-16.165-4.353-19.7,13.754-19.7,13.754c-2.487-1.352-5.789-2.409-8.821-2.409
		c-6.174,0-11.605,3.188-14.737,8.008c-0.416-0.62-0.899-1.188-1.442-1.696c-0.369-0.344-0.592-1.08-1.383-1.61
		c-0.209-0.141-0.575,0.199-0.794,0.074c-0.729-0.417-1.164-0.55-1.996-0.768c-0.381-0.099-0.148-0.871-0.222-0.977
		c-0.243-0.351-0.747-0.913-1.185-0.913c-0.084,0-0.797,0.806-1.306,1.582c-0.683,0.961-1.323,2.283-1.672,2.008
		c-0.205-0.162-0.187-1.051-0.468-1.11c-0.311-0.064-0.492-0.077-1.178,0.402c-0.251,0.176-0.279,1.017-0.558,0.933
		c-0.441-0.133-0.724-0.512-0.667-0.9c-1.096,0.714-2.549,1.883-3.279,2.968c-0.127,0.189,0.091,0.933-0.023,1.131
		c-0.605,1.053-1.356,1.681-1.53,2.936c-0.061,0.438-1.779,2.035-1.779,2.491c0,0.107,2.027,1.514,2.049,1.616
		c0.231,1.054,0.382,1.421,1.49,2.946c0.055,0.076,1.859-2.008,1.938-2.062c1.229-0.826,2.178,0.122,1.472,2.097
		c-0.021,0.06-0.486,0.851-0.822,1.463l-8.719,2.851l-4.092,0.571l-0.777,2.176l4.663-0.104l6.113-0.311l2.849,1.554l3.482-0.784
		l0.508-0.822l3.368-0.052c6.01-2.486,11.354-7.683,15.968-9.115l-1.202,3.624l-5.544,1.502l-1.139,0.881v1.451h4.403l9.223-3.523
		l0.597-4.9c0.016,0,0.029,0,0.042,0c4.595,0,7.929,0.593,10.986,2.65l-2.352,3.027l-2.591,0.467v2.071h5.855
		c0,0,3.545-7.275,3.529-7.513c-2.72-0.599-4.307-2.903-4.307-5.801c0-1.353,0.443-2.602,1.191-3.609
		c-0.361-0.471-0.347-1.775-0.751-2.208l0.623-2.329l0.003-0.004c0.436-6.587,5.912-11.798,12.609-11.798
		c0.638,0,1.263,0.048,1.874,0.14l0.002-0.001C185.948,53.153,184.789,53.032,184.789,53.032z"/>
	
		<linearGradient id="SVGID_1_" gradientUnits="userSpaceOnUse" x1="169.085" y1="91.3672" x2="169.085" y2="91.3672" gradientTransform="matrix(1 0 0 -1 0 167.082)">
		<stop  offset="0" style="stop-color:#E8C68B"/>
		<stop  offset="0.8276" style="stop-color:#FFFFFF"/>
	</linearGradient>
	<path fill="url(#SVGID_1_)" d="M169.085,75.715"/>
	
		<linearGradient id="SVGID_2_" gradientUnits="userSpaceOnUse" x1="189.6836" y1="126.5127" x2="189.6836" y2="103.9277" gradientTransform="matrix(1 0 0 -1 0 167.082)">
		<stop  offset="0" style="stop-color:#FFFFFF"/>
		<stop  offset="0.0975" style="stop-color:#FDE9D1;stop-opacity:0.9208"/>
		<stop  offset="0.2121" style="stop-color:#FCD3A2;stop-opacity:0.8278"/>
		<stop  offset="0.3306" style="stop-color:#FABF79;stop-opacity:0.7316"/>
		<stop  offset="0.4511" style="stop-color:#F9B058;stop-opacity:0.6337"/>
		<stop  offset="0.5744" style="stop-color:#F8A33F;stop-opacity:0.5336"/>
		<stop  offset="0.7016" style="stop-color:#F89B2C;stop-opacity:0.4303"/>
		<stop  offset="0.8351" style="stop-color:#F79622;stop-opacity:0.3219"/>
		<stop  offset="0.9852" style="stop-color:#F7941E;stop-opacity:0.2"/>
	</linearGradient>
	<path display="none" fill="url(#SVGID_2_)" d="M205.095,43.674c0,0-8.851-4.33-18.424,2.94
		c-9.574,7.271-12.724,16.542-12.724,16.542c0.592-2.757,4.594-18.25,17.269-21.768c0,0,5.14-2.059,13.663,0.359
		C204.879,41.747,205.939,42.039,205.095,43.674z"/>
	
		<linearGradient id="SVGID_3_" gradientUnits="userSpaceOnUse" x1="113.6108" y1="77.8105" x2="113.6108" y2="93.873" gradientTransform="matrix(1 0 0 -1 0 167.082)">
		<stop  offset="0" style="stop-color:#FFFFFF"/>
		<stop  offset="0.1181" style="stop-color:#FFFBF4;stop-opacity:0.8922"/>
		<stop  offset="0.3858" style="stop-color:#FFF4E2;stop-opacity:0.6476"/>
		<stop  offset="0.6678" style="stop-color:#FFEFD8;stop-opacity:0.3899"/>
		<stop  offset="0.9852" style="stop-color:#FFEED4;stop-opacity:0.1"/>
	</linearGradient>
	<path display="none" fill="url(#SVGID_3_)" d="M115.374,86.058l-2.096,2.252l-0.427,0.456l-0.5,0.506l-1.236-1.702l-4.282-5.469
		l5.291-8.589c0,0,5.292-1.251,7.393,1.334c2.1,2.585-0.243,9.009-0.243,9.009L115.374,86.058z"/>
</g>
</svg>
